<?xml version="1.0" encoding="UTF-8" standalone="yes"?>
<svg xmlns="http://www.w3.org/2000/svg" height="452" width="452">
<script type="text/ecmascript">
      <![CDATA[
        var shown = 1;
        function click() {
             var seq = document.getElementById("seq");
             if (shown==1) {
               seq.setAttribute("style", "visibility: hidden");
               shown = 0;
             } else {
               seq.setAttribute("style", "visibility: visible");
               shown = 1;
             }
         }
        ]]>
</script>
  <rect style="stroke: white; fill: white" height="452" x="0" y="0" width="452" onclick="click(evt)" />
  <g transform="scale(0.948836,0.948836) translate(260.908630,217.009491)">
    <polyline style="stroke: black; fill: none; stroke-width: 1.5" id="outline" points="
      76.698,-78.226
      72.619,-70.645
      70.860,-62.440
      71.443,-54.285
      74.204,-46.820
      58.714,-48.466
      46.911,-38.866
      45.439,-24.089
      33.670,-14.789
      21.901,-5.489
      6.276,-3.003
      1.087,10.959
      -10.682,20.259
      -22.450,29.559
      -35.666,26.458
      -48.053,31.514
      -55.113,42.648
      -54.426,55.617
      -65.900,65.279
      -85.790,67.724
      -91.959,85.938
      -104.012,94.867
      -116.064,103.797
      -128.116,112.727
      -140.169,121.656
      -152.221,130.586
      -164.274,139.516
      -184.277,140.719
      -191.567,158.514
      -204.151,166.677
      -216.735,174.840
      -229.320,183.003
      -245.716,183.312
      -253.409,197.795
      -244.484,211.553
      -228.123,210.434
      -221.157,195.588
      -208.572,187.425
      -195.988,179.262
      -183.404,171.099
      -173.427,174.153
      -163.231,171.055
      -156.360,162.621
      -155.344,151.568
      -143.292,142.638
      -131.239,133.709
      -119.187,124.779
      -107.134,115.849
      -95.082,106.920
      -83.029,97.990
      -72.882,100.418
      -62.898,96.692
      -56.565,87.848
      -56.238,76.753
      -44.764,67.091
      -28.171,69.285
      -14.810,58.657
      -13.150,41.328
      -1.381,32.028
      10.388,22.727
      25.170,20.907
      31.201,6.280
      42.970,-3.020
      54.739,-12.320
      69.456,-10.337
      81.524,-19.601
      83.504,-35.051
      110.342,-27.915
      133.707,-48.293
      148.662,-47.128
      163.616,-45.963
      178.571,-44.797
      191.780,-35.078
      206.690,-41.905
      207.964,-58.254
      194.291,-67.308
      179.736,-59.752
      164.781,-60.917
      149.827,-62.083
      134.872,-63.248
      129.402,-77.215
      139.589,-88.226
      149.775,-99.237
      159.961,-110.248
      170.148,-121.259
      180.334,-132.269
      190.520,-143.280
      205.715,-150.801
      202.694,-167.484
      185.827,-169.199
      179.509,-153.467
      169.323,-142.456
      159.137,-131.445
      148.950,-120.434
      138.764,-109.423
      128.578,-98.412
      118.391,-87.401
      109.235,-90.578
      99.774,-91.069
      90.760,-88.956
    " />
    <g style="stroke: black; stroke-width: 1; fill: none;" id="pairs">
      <line id="5,67" x1="74.20405" y1="-46.82038" x2="83.50419" y2="-35.05147" />
      <line id="8,64" x1="45.43851" y1="-24.08901" x2="54.73866" y2="-12.32010" />
      <line id="9,63" x1="33.66960" y1="-14.78887" x2="42.96975" y2="-3.01995" />
      <line id="10,62" x1="21.90069" y1="-5.48872" x2="31.20083" y2="6.28019" />
      <line id="12,60" x1="1.08741" y1="10.95854" x2="10.38755" y2="22.72746" />
      <line id="13,59" x1="-10.68151" y1="20.25869" x2="-1.38136" y2="32.02760" />
      <line id="14,58" x1="-22.45042" y1="29.55883" x2="-13.15028" y2="41.32774" />
      <line id="18,55" x1="-54.42603" y1="55.61734" x2="-44.76437" y2="67.09132" />
      <line id="19,54" x1="-65.90002" y1="65.27899" x2="-56.23836" y2="76.75298" />
      <line id="21,50" x1="-91.95911" y1="85.93775" x2="-83.02948" y2="97.99020" />
      <line id="22,49" x1="-104.01157" y1="94.86739" x2="-95.08194" y2="106.91984" />
      <line id="23,48" x1="-116.06403" y1="103.79702" x2="-107.13439" y2="115.84947" />
      <line id="24,47" x1="-128.11649" y1="112.72665" x2="-119.18684" y2="124.77911" />
      <line id="25,46" x1="-140.16893" y1="121.65629" x2="-131.23930" y2="133.70874" />
      <line id="26,45" x1="-152.22139" y1="130.58591" x2="-143.29175" y2="142.63837" />
      <line id="27,44" x1="-164.27383" y1="139.51555" x2="-155.34421" y2="151.56799" />
      <line id="29,40" x1="-191.56688" y1="158.51425" x2="-183.40382" y2="171.09856" />
      <line id="30,39" x1="-204.15117" y1="166.67732" x2="-195.98811" y2="179.26161" />
      <line id="31,38" x1="-216.73546" y1="174.84039" x2="-208.57240" y2="187.42468" />
      <line id="32,37" x1="-229.31976" y1="183.00345" x2="-221.15669" y2="195.58774" />
      <line id="69,80" x1="133.70686" y1="-48.29325" x2="134.87213" y2="-63.24792" />
      <line id="70,79" x1="148.66154" y1="-47.12800" x2="149.82680" y2="-62.08266" />
      <line id="71,78" x1="163.61621" y1="-45.96274" x2="164.78146" y2="-60.91741" />
      <line id="72,77" x1="178.57088" y1="-44.79748" x2="179.73615" y2="-59.75215" />
      <line id="81,97" x1="129.40236" y1="-77.21509" x2="118.39148" y2="-87.40138" />
      <line id="82,96" x1="139.58865" y1="-88.22597" x2="128.57777" y2="-98.41226" />
      <line id="83,95" x1="149.77493" y1="-99.23685" x2="138.76407" y2="-109.42314" />
      <line id="84,94" x1="159.96123" y1="-110.24773" x2="148.95035" y2="-120.43401" />
      <line id="85,93" x1="170.14752" y1="-121.25859" x2="159.13664" y2="-131.44489" />
      <line id="86,92" x1="180.33382" y1="-132.26947" x2="169.32294" y2="-142.45576" />
      <line id="87,91" x1="190.52011" y1="-143.28035" x2="179.50923" y2="-153.46664" />
    </g>
    <g style="font-family: SansSerif" transform="translate(-4.6, 4)" id="seq">
      <text x="76.698" y="-78.226">A</text>
      <text x="72.619" y="-70.645">A</text>
      <text x="70.860" y="-62.440">U</text>
      <text x="71.443" y="-54.285">C</text>
      <text x="74.204" y="-46.820">G</text>
      <text x="58.714" y="-48.466">U</text>
      <text x="46.911" y="-38.866">G</text>
      <text x="45.439" y="-24.089">A</text>
      <text x="33.670" y="-14.789">G</text>
      <text x="21.901" y="-5.489">C</text>
      <text x="6.276" y="-3.003">A</text>
      <text x="1.087" y="10.959">G</text>
      <text x="-10.682" y="20.259">A</text>
      <text x="-22.450" y="29.559">U</text>
      <text x="-35.666" y="26.458">A</text>
      <text x="-48.053" y="31.514">U</text>
      <text x="-55.113" y="42.648">U</text>
      <text x="-54.426" y="55.617">G</text>
      <text x="-65.900" y="65.279">C</text>
      <text x="-85.790" y="67.724">A</text>
      <text x="-91.959" y="85.938">G</text>
      <text x="-104.012" y="94.867">U</text>
      <text x="-116.064" y="103.797">U</text>
      <text x="-128.116" y="112.727">U</text>
      <text x="-140.169" y="121.656">U</text>
      <text x="-152.221" y="130.586">A</text>
      <text x="-164.274" y="139.516">G</text>
      <text x="-184.277" y="140.719">A</text>
      <text x="-191.567" y="158.514">G</text>
      <text x="-204.151" y="166.677">C</text>
      <text x="-216.735" y="174.840">U</text>
      <text x="-229.320" y="183.003">A</text>
      <text x="-245.716" y="183.312">G</text>
      <text x="-253.409" y="197.795">A</text>
      <text x="-244.484" y="211.553">A</text>
      <text x="-228.123" y="210.434">A</text>
      <text x="-221.157" y="195.588">U</text>
      <text x="-208.572" y="187.425">A</text>
      <text x="-195.988" y="179.262">G</text>
      <text x="-183.404" y="171.099">C</text>
      <text x="-173.427" y="174.153">A</text>
      <text x="-163.231" y="171.055">A</text>
      <text x="-156.360" y="162.621">G</text>
      <text x="-155.344" y="151.568">U</text>
      <text x="-143.292" y="142.638">U</text>
      <text x="-131.239" y="133.709">A</text>
      <text x="-119.187" y="124.779">A</text>
      <text x="-107.134" y="115.849">A</text>
      <text x="-95.082" y="106.920">A</text>
      <text x="-83.029" y="97.990">U</text>
      <text x="-72.882" y="100.418">A</text>
      <text x="-62.898" y="96.692">A</text>
      <text x="-56.565" y="87.848">G</text>
      <text x="-56.238" y="76.753">G</text>
      <text x="-44.764" y="67.091">C</text>
      <text x="-28.171" y="69.285">U</text>
      <text x="-14.810" y="58.657">A</text>
      <text x="-13.150" y="41.328">G</text>
      <text x="-1.381" y="32.028">U</text>
      <text x="10.388" y="22.727">C</text>
      <text x="25.170" y="20.907">C</text>
      <text x="31.201" y="6.280">G</text>
      <text x="42.970" y="-3.020">U</text>
      <text x="54.739" y="-12.320">U</text>
      <text x="69.456" y="-10.337">A</text>
      <text x="81.524" y="-19.601">U</text>
      <text x="83.504" y="-35.051">C</text>
      <text x="110.342" y="-27.915">A</text>
      <text x="133.707" y="-48.293">A</text>
      <text x="148.662" y="-47.128">C</text>
      <text x="163.616" y="-45.963">U</text>
      <text x="178.571" y="-44.797">U</text>
      <text x="191.780" y="-35.078">G</text>
      <text x="206.690" y="-41.905">A</text>
      <text x="207.964" y="-58.254">A</text>
      <text x="194.291" y="-67.308">A</text>
      <text x="179.736" y="-59.752">A</text>
      <text x="164.781" y="-60.917">A</text>
      <text x="149.827" y="-62.083">G</text>
      <text x="134.872" y="-63.248">U</text>
      <text x="129.402" y="-77.215">G</text>
      <text x="139.589" y="-88.226">G</text>
      <text x="149.775" y="-99.237">C</text>
      <text x="159.961" y="-110.248">A</text>
      <text x="170.148" y="-121.259">C</text>
      <text x="180.334" y="-132.269">C</text>
      <text x="190.520" y="-143.280">G</text>
      <text x="205.715" y="-150.801">A</text>
      <text x="202.694" y="-167.484">G</text>
      <text x="185.827" y="-169.199">U</text>
      <text x="179.509" y="-153.467">C</text>
      <text x="169.323" y="-142.456">G</text>
      <text x="159.137" y="-131.445">G</text>
      <text x="148.950" y="-120.434">U</text>
      <text x="138.764" y="-109.423">G</text>
      <text x="128.578" y="-98.412">C</text>
      <text x="118.391" y="-87.401">U</text>
      <text x="109.235" y="-90.578">U</text>
      <text x="99.774" y="-91.069">U</text>
      <text x="90.760" y="-88.956">U</text>
    </g>
  </g>
</svg>
