<?xml version="1.0" encoding="UTF-8" standalone="yes"?>
<svg xmlns="http://www.w3.org/2000/svg" height="452" width="452">
<script type="text/ecmascript">
      <![CDATA[
        var shown = 1;
        function click() {
             var seq = document.getElementById("seq");
             if (shown==1) {
               seq.setAttribute("style", "visibility: hidden");
               shown = 0;
             } else {
               seq.setAttribute("style", "visibility: visible");
               shown = 1;
             }
         }
        ]]>
</script>
  <rect style="stroke: white; fill: white" height="452" x="0" y="0" width="452" onclick="click(evt)" />
  <g transform="scale(0.857936,0.857936) translate(189.808228,161.866226)">
    <polyline style="stroke: black; fill: none; stroke-width: 1.5" id="outline" points="
      188.433,25.646
      176.664,34.947
      164.896,44.247
      153.127,53.547
      141.358,62.847
      129.446,71.963
      117.393,80.893
      105.341,89.822
      91.473,91.604
      85.730,104.352
      72.219,97.336
      57.064,96.883
      43.271,103.030
      33.556,114.509
      29.802,129.008
      32.705,143.638
      20.652,152.568
      8.600,161.497
      -6.831,159.371
      -18.927,168.599
      -20.859,183.323
      -32.911,192.253
      -44.964,201.182
      -57.016,210.112
      -69.069,219.042
      -81.121,227.971
      -93.173,236.901
      -113.177,238.104
      -120.466,255.900
      -133.051,264.063
      -145.635,272.226
      -158.219,280.389
      -174.616,280.698
      -182.308,295.181
      -173.384,308.939
      -157.023,307.819
      -150.056,292.973
      -137.472,284.810
      -124.888,276.647
      -112.303,268.484
      -102.326,271.538
      -92.130,268.440
      -85.259,260.007
      -84.244,248.953
      -72.191,240.024
      -60.139,231.094
      -48.086,222.164
      -36.034,213.235
      -23.982,204.305
      -11.929,195.376
      2.720,197.815
      15.070,188.931
      17.529,173.550
      29.582,164.620
      41.634,155.691
      54.785,162.728
      69.749,163.359
      83.560,157.407
      93.457,146.003
      97.437,131.373
      94.659,116.404
      108.527,114.623
      114.270,101.875
      126.323,92.945
      138.375,84.016
      147.302,81.351
      150.658,74.616
      162.427,65.316
      174.196,56.016
      185.965,46.716
      197.733,37.415
      207.167,43.251
      217.855,46.139
      228.901,45.850
      239.383,42.421
      248.428,36.150
      255.290,27.570
      259.402,17.407
      260.435,6.513
      258.313,-4.201
      253.225,-13.841
      263.412,-24.852
      273.598,-35.863
      283.784,-46.874
      293.971,-57.885
      304.157,-68.895
      314.343,-79.906
      329.538,-87.427
      326.517,-104.110
      309.650,-105.825
      303.332,-90.093
      293.146,-79.082
      282.960,-68.071
      272.773,-57.060
      262.587,-46.049
      252.401,-35.038
      242.215,-24.027
      223.715,-29.640
      204.789,-25.343
      190.416,-12.189
    " />
    <g style="stroke: black; stroke-width: 1; fill: none;" id="pairs">
      <line id="1,71" x1="188.43335" y1="25.64650" x2="197.73349" y2="37.41541" />
      <line id="2,70" x1="176.66443" y1="34.94664" x2="185.96457" y2="46.71555" />
      <line id="3,69" x1="164.89552" y1="44.24678" x2="174.19566" y2="56.01570" />
      <line id="4,68" x1="153.12660" y1="53.54692" x2="162.42674" y2="65.31584" />
      <line id="5,67" x1="141.35770" y1="62.84706" x2="150.65784" y2="74.61598" />
      <line id="6,65" x1="129.44557" y1="71.96306" x2="138.37520" y2="84.01551" />
      <line id="7,64" x1="117.39311" y1="80.89269" x2="126.32275" y2="92.94514" />
      <line id="8,63" x1="105.34066" y1="89.82233" x2="114.27029" y2="101.87478" />
      <line id="10,61" x1="85.72971" y1="104.35203" x2="94.65934" y2="116.40448" />
      <line id="16,55" x1="32.70477" y1="143.63808" x2="41.63440" y2="155.69052" />
      <line id="17,54" x1="20.65231" y1="152.56770" x2="29.58195" y2="164.62016" />
      <line id="18,53" x1="8.59986" y1="161.49734" x2="17.52949" y2="173.54979" />
      <line id="21,50" x1="-20.85870" y1="183.32310" x2="-11.92907" y2="195.37556" />
      <line id="22,49" x1="-32.91116" y1="192.25275" x2="-23.98152" y2="204.30519" />
      <line id="23,48" x1="-44.96361" y1="201.18237" x2="-36.03398" y2="213.23483" />
      <line id="24,47" x1="-57.01606" y1="210.11201" x2="-48.08643" y2="222.16446" />
      <line id="25,46" x1="-69.06852" y1="219.04164" x2="-60.13889" y2="231.09410" />
      <line id="26,45" x1="-81.12097" y1="227.97128" x2="-72.19134" y2="240.02373" />
      <line id="27,44" x1="-93.17342" y1="236.90091" x2="-84.24380" y2="248.95337" />
      <line id="29,40" x1="-120.46646" y1="255.89963" x2="-112.30340" y2="268.48392" />
      <line id="30,39" x1="-133.05075" y1="264.06268" x2="-124.88770" y2="276.64697" />
      <line id="31,38" x1="-145.63506" y1="272.22574" x2="-137.47198" y2="284.81003" />
      <line id="32,37" x1="-158.21935" y1="280.38879" x2="-150.05627" y2="292.97308" />
      <line id="81,97" x1="253.22539" y1="-13.84100" x2="242.21451" y2="-24.02730" />
      <line id="82,96" x1="263.41168" y1="-24.85188" x2="252.40080" y2="-35.03818" />
      <line id="83,95" x1="273.59796" y1="-35.86276" x2="262.58710" y2="-46.04906" />
      <line id="84,94" x1="283.78427" y1="-46.87364" x2="272.77338" y2="-57.05994" />
      <line id="85,93" x1="293.97055" y1="-57.88452" x2="282.95969" y2="-68.07080" />
      <line id="86,92" x1="304.15686" y1="-68.89539" x2="293.14597" y2="-79.08170" />
      <line id="87,91" x1="314.34314" y1="-79.90628" x2="303.33228" y2="-90.09256" />
    </g>
    <g style="font-family: SansSerif" transform="translate(-4.6, 4)" id="seq">
      <text x="188.433" y="25.646">A</text>
      <text x="176.664" y="34.947">G</text>
      <text x="164.896" y="44.247">U</text>
      <text x="153.127" y="53.547">U</text>
      <text x="141.358" y="62.847">G</text>
      <text x="129.446" y="71.963">U</text>
      <text x="117.393" y="80.893">A</text>
      <text x="105.341" y="89.822">G</text>
      <text x="91.473" y="91.604">A</text>
      <text x="85.730" y="104.352">G</text>
      <text x="72.219" y="97.336">A</text>
      <text x="57.064" y="96.883">A</text>
      <text x="43.271" y="103.030">A</text>
      <text x="33.556" y="114.509">A</text>
      <text x="29.802" y="129.008">U</text>
      <text x="32.705" y="143.638">G</text>
      <text x="20.652" y="152.568">C</text>
      <text x="8.600" y="161.497">U</text>
      <text x="-6.831" y="159.371">A</text>
      <text x="-18.927" y="168.599">G</text>
      <text x="-20.859" y="183.323">G</text>
      <text x="-32.911" y="192.253">U</text>
      <text x="-44.964" y="201.182">U</text>
      <text x="-57.016" y="210.112">U</text>
      <text x="-69.069" y="219.042">U</text>
      <text x="-81.121" y="227.971">A</text>
      <text x="-93.173" y="236.901">G</text>
      <text x="-113.177" y="238.104">A</text>
      <text x="-120.466" y="255.900">G</text>
      <text x="-133.051" y="264.063">C</text>
      <text x="-145.635" y="272.226">U</text>
      <text x="-158.219" y="280.389">A</text>
      <text x="-174.616" y="280.698">G</text>
      <text x="-182.308" y="295.181">A</text>
      <text x="-173.384" y="308.939">A</text>
      <text x="-157.023" y="307.819">A</text>
      <text x="-150.056" y="292.973">U</text>
      <text x="-137.472" y="284.810">A</text>
      <text x="-124.888" y="276.647">G</text>
      <text x="-112.303" y="268.484">C</text>
      <text x="-102.326" y="271.538">A</text>
      <text x="-92.130" y="268.440">A</text>
      <text x="-85.259" y="260.007">G</text>
      <text x="-84.244" y="248.953">U</text>
      <text x="-72.191" y="240.024">U</text>
      <text x="-60.139" y="231.094">A</text>
      <text x="-48.086" y="222.164">A</text>
      <text x="-36.034" y="213.235">A</text>
      <text x="-23.982" y="204.305">A</text>
      <text x="-11.929" y="195.376">U</text>
      <text x="2.720" y="197.815">A</text>
      <text x="15.070" y="188.931">A</text>
      <text x="17.529" y="173.550">G</text>
      <text x="29.582" y="164.620">G</text>
      <text x="41.634" y="155.691">C</text>
      <text x="54.785" y="162.728">U</text>
      <text x="69.749" y="163.359">A</text>
      <text x="83.560" y="157.407">G</text>
      <text x="93.457" y="146.003">U</text>
      <text x="97.437" y="131.373">C</text>
      <text x="94.659" y="116.404">C</text>
      <text x="108.527" y="114.623">G</text>
      <text x="114.270" y="101.875">U</text>
      <text x="126.323" y="92.945">U</text>
      <text x="138.375" y="84.016">A</text>
      <text x="147.302" y="81.351">U</text>
      <text x="150.658" y="74.616">C</text>
      <text x="162.427" y="65.316">A</text>
      <text x="174.196" y="56.016">A</text>
      <text x="185.965" y="46.716">C</text>
      <text x="197.733" y="37.415">U</text>
      <text x="207.167" y="43.251">U</text>
      <text x="217.855" y="46.139">G</text>
      <text x="228.901" y="45.850">A</text>
      <text x="239.383" y="42.421">A</text>
      <text x="248.428" y="36.150">A</text>
      <text x="255.290" y="27.570">A</text>
      <text x="259.402" y="17.407">A</text>
      <text x="260.435" y="6.513">G</text>
      <text x="258.313" y="-4.201">U</text>
      <text x="253.225" y="-13.841">G</text>
      <text x="263.412" y="-24.852">G</text>
      <text x="273.598" y="-35.863">C</text>
      <text x="283.784" y="-46.874">A</text>
      <text x="293.971" y="-57.885">C</text>
      <text x="304.157" y="-68.895">C</text>
      <text x="314.343" y="-79.906">G</text>
      <text x="329.538" y="-87.427">A</text>
      <text x="326.517" y="-104.110">G</text>
      <text x="309.650" y="-105.825">U</text>
      <text x="303.332" y="-90.093">C</text>
      <text x="293.146" y="-79.082">G</text>
      <text x="282.960" y="-68.071">G</text>
      <text x="272.773" y="-57.060">U</text>
      <text x="262.587" y="-46.049">G</text>
      <text x="252.401" y="-35.038">C</text>
      <text x="242.215" y="-24.027">U</text>
      <text x="223.715" y="-29.640">U</text>
      <text x="204.789" y="-25.343">U</text>
      <text x="190.416" y="-12.189">U</text>
    </g>
  </g>
</svg>
